<?xml version="1.0" encoding="UTF-8"?>
<svg id="Layer_1" data-name="Layer 1" xmlns="http://www.w3.org/2000/svg" viewBox="0 0 54 54">
  <defs>
    <style>
      .cls-1 {
        fill: #e4efe1;
      }

      .cls-2 {
        fill: #009245;
      }
    </style>
  </defs>
  <rect class="cls-1" x=".36" y=".21" width="53.55" height="53.55" rx="12.77" ry="12.77"/>
  <g>
    <path class="cls-2" d="M40.53,34.43l-4.49-8.95,6.79-2.81c.52-.22.87-.72.89-1.28l.02-.6-8.81,3.68-3.43,1.15,2.26.73.97-.36,4.61,9.16-1.96,1.73c-1.17,1.03-2.48,1.9-3.9,2.57l-8.54,4.05c-.19.09-.37.06-.48.02-.18-.07-.33-.21-.41-.38-.14-.32.01-.67.38-.84l4.53-2.16c.17-.08.29-.22.35-.39.06-.18.04-.38-.04-.55-.15-.29-.55-.48-.92-.3l-6.8,3.23c-.17.08-.33.05-.44,0-.18-.07-.34-.22-.41-.38-.13-.31.01-.67.34-.82l6.54-3.11c.36-.17.5-.57.33-.93-.07-.15-.22-.28-.4-.35-.17-.06-.36-.06-.51.02l-7.41,3.52c-.16.07-.34.08-.51.02-.17-.06-.32-.19-.38-.35-.15-.33,0-.69.36-.86l6.65-3.17c.16-.08.29-.21.34-.38.06-.18.05-.38-.04-.55-.15-.29-.54-.49-.93-.31l-5.78,2.76c-.35.16-.76.08-.95-.19-.11-.15-.14-.32-.1-.49.05-.2.22-.38.45-.49l3.02-1.43c.19-.09.33-.24.38-.43.06-.18.04-.37-.06-.54-.19-.33-.6-.45-.95-.28l-3.2,1.54c-.64.31-1.05.99-1.06,1.77,0,.62.28,1.18.8,1.58-.46.64-.53,1.45-.15,2.14.36.65,1.02,1.05,1.77,1.08,0,.65.31,1.25.84,1.63.63.45,1.45.52,2.15.19l.38-.18c.09.59.42,1.1.92,1.43.35.22.73.34,1.13.34.34,0,.69-.08,1.04-.25l8.65-4.14c1.54-.74,2.89-1.76,4.1-2.75.3-.25.58-.51.85-.77.43-.41.83-.8,1.31-1.1.55-.34,1.36-.67,2.41-1.06.6-.22.97-.78.94-1.42v-.39l-3.47,1.38Z"/>
    <path class="cls-2" d="M21.54,25.24c.58-.31,1.18-.38,1.8-.21l8.27,2.78c-.05.19-.13.37-.23.54-.34.53-.9.62-1.89.29l-3.56-1.18c-.2-.06-.41-.05-.6.04-.18.09-.31.24-.37.42-.24.73-.59,1.34-1.08,1.88-1.14,1.26-2.67,1.53-4.81.86-.18-.06-.38-.04-.55.05-.16.09-.28.23-.33.4-.11.38.08.74.45.86.76.25,1.49.39,2.24.42,2.32.06,4.15-1.15,5.18-3.44l3.13,1.04c1.49.5,2.81.08,3.45-1.08.22-.41.37-.88.44-1.44.05-.39-.14-.69-.52-.82l-8.77-2.94c-.95-.32-2-.21-2.98.31-.44.23-1.1.45-1.79.21l-8.89-3.3-.37-.13v.39c0,.64.4,1.2,1.01,1.43l6.2,2.33-3.32,9.42-3.43-1.19-.36-.12v.38c0,.64.42,1.21,1.03,1.42l3.02,1.04c.07.02.13.03.2.03.28,0,.53-.2.65-.54l3.51-9.97c1.09.41,2.24.33,3.26-.22Z"/>
    <path class="cls-2" d="M26.71,16.67c1.74,0,3.15-1.41,3.15-3.15s-1.41-3.15-3.15-3.15-3.15,1.41-3.15,3.15,1.41,3.15,3.15,3.15ZM25.05,13.52c0-.91.74-1.65,1.65-1.65s1.65.74,1.65,1.65-.74,1.65-1.65,1.65-1.65-.74-1.65-1.65Z"/>
    <path class="cls-2" d="M21.49,23.12l.33-.09s.44-.13.9-.09l.31.02v-.26c.08-1.98,1.66-3.52,3.62-3.52h.03c1.92.01,3.49,1.55,3.58,3.53l.19,1.51,1.55-.57-.21-1.47c-.3-2.59-2.5-4.54-5.11-4.54h-.02c-1.39,0-2.75.58-3.72,1.58-.95.98-1.52,2.19-1.48,3.55v.35Z"/>
    <path class="cls-2" d="M19.59,17.43c1.48,0,2.68-1.2,2.68-2.68s-1.2-2.68-2.68-2.68-2.68,1.2-2.68,2.68,1.2,2.68,2.68,2.68ZM18.39,14.75c0-.66.54-1.19,1.19-1.19s1.19.54,1.19,1.19-.54,1.19-1.19,1.19-1.19-.54-1.19-1.19Z"/>
    <path class="cls-2" d="M33.64,17.61c1.48,0,2.68-1.2,2.68-2.68s-1.2-2.68-2.68-2.68-2.68,1.2-2.68,2.68,1.2,2.68,2.68,2.68ZM32.45,14.93c0-.66.54-1.2,1.2-1.2s1.19.54,1.19,1.2-.54,1.2-1.19,1.2-1.2-.54-1.2-1.2Z"/>
    <path class="cls-2" d="M17.27,21.95c.03-.77.49-1.58,1.1-1.98.82-.54,1.68-.38,2.25-.15l.34.13.74-1.21-.26-.16c-1.15-.68-2.6-.66-3.79.04-1,.59-1.67,1.65-1.79,2.83l1.42.5Z"/>
    <path class="cls-2" d="M35.56,18.8c-1.18-.7-2.62-.71-3.75-.03l-.26.16.92,1.16.19-.09c.77-.35,1.55-.3,2.24.16.56.38.91,1.01.97,1.79l.03.53,1.47-.63-.02-.23c-.11-1.17-.78-2.22-1.78-2.82Z"/>
  </g>
</svg>