<?xml version="1.0" encoding="UTF-8"?>
<svg id="Layer_1" data-name="Layer 1" xmlns="http://www.w3.org/2000/svg" viewBox="0 0 54 54">
  <defs>
    <style>
      .cls-1 {
        fill: #e4efe1;
      }

      .cls-2 {
        fill: #009245;
      }
    </style>
  </defs>
  <rect class="cls-1" x=".23" y=".23" width="53.55" height="53.55" rx="12.77" ry="12.77"/>
  <g>
    <path class="cls-2" d="M27.67,26.02c-.06-.05-.14-.09-.21-.11-.07-.03-.15-.06-.23-.07-.4-.07-.82.05-1.1.33-.06.06-.11.12-.15.19-.04.06-.08.14-.11.21-.03.07-.06.15-.06.23-.02.08-.02.15-.02.24,0,.32.13.63.36.86.22.23.54.36.86.36.07,0,.15,0,.24-.02.07-.02.15-.04.23-.06.07-.03.15-.07.21-.11.06-.05.13-.1.19-.15.23-.23.36-.54.36-.86s-.13-.63-.36-.86c-.06-.06-.12-.11-.19-.15Z"/>
    <path class="cls-2" d="M38.04,35.71l-.27-.03.04-.27c.07-.53.1-.98.1-1.4v-3.22h3.99c.53,0,.95-.43.95-.95s-.43-.95-.95-.95h-3.99v-4.83c0-.06,0-.12,0-.2l-.02-.29.25-.08c1.2-.14,3.42-.73,4.87-3.13.13-.22.17-.47.11-.72s-.21-.46-.43-.59c-.45-.27-1.04-.13-1.31.32-1.27,2.09-3.31,2.25-3.91,2.25h-.15l-.08-.13c-.92-1.63-2.65-2.65-4.51-2.67h-.25s-.06-1.52-.06-1.52c0-.89-.21-1.75-.6-2.54l-.07-.15,2.41-3.03c.16-.2.23-.45.2-.7-.03-.25-.15-.48-.35-.64-.2-.16-.45-.23-.7-.2-.25.03-.48.15-.64.35l-2.13,2.67-.21-.17c-1.93-1.55-4.73-1.57-6.68-.04l-.21.16-2.09-2.63c-.16-.2-.39-.33-.64-.35-.25-.03-.5.04-.7.2-.2.16-.33.39-.36.64-.03.25.04.5.2.7l2.35,2.96-.08.15c-.42.82-.63,1.7-.63,2.62v1.51h-.26c-1.85.03-3.56,1.05-4.47,2.67l-.08.13h-.15c-.6,0-2.65-.17-3.91-2.25-.13-.22-.34-.37-.59-.43-.25-.06-.5-.02-.72.11-.22.13-.37.34-.43.59-.06.25-.02.5.11.72,1.46,2.4,3.68,2.99,4.87,3.13l.25.03-.02.32c0,.11-.01.17-.01.22v4.83h-3.99c-.53,0-.95.43-.95.95s.43.95.95.95h3.99v3.22c0,.42.03.87.1,1.4l.04.27-.27.03c-1.22.12-3.48.69-4.96,3.13-.13.22-.17.47-.11.72.06.25.21.46.43.59.21.13.47.17.72.1.25-.06.46-.22.59-.43,1.26-2.07,3.3-2.25,3.9-2.25h.18s.06.17.06.17c1.56,4.16,5.58,6.95,10,6.95h.45c4.42,0,8.44-2.79,10-6.95l.06-.17h.18c.6,0,2.64.17,3.9,2.25.27.44.87.59,1.31.32.22-.13.37-.34.43-.59.06-.25.02-.5-.11-.72-1.48-2.44-3.74-3.01-4.96-3.14ZM26.95,13.61c1.96,0,3.55,1.66,3.55,3.71l.05,1.32h-7.16v-1.33c0-2.04,1.59-3.7,3.55-3.7ZM28.25,42.73l-.29.03v-10.73c0-.53-.43-.95-.95-.95s-.95.43-.95.95v10.73l-.29-.03c-4.42-.52-7.76-4.26-7.76-8.72v-9.96c0-1.84,1.49-3.33,3.33-3.33h4.72v1.54c0,.53.43.95.95.95s.95-.43.95-.95v-1.54h4.72c1.84,0,3.33,1.49,3.33,3.33v9.96c0,4.45-3.34,8.2-7.76,8.72Z"/>
  </g>
</svg>