<?xml version="1.0" encoding="UTF-8"?>
<svg id="Layer_1" data-name="Layer 1" xmlns="http://www.w3.org/2000/svg" viewBox="0 0 54 54">
  <defs>
    <style>
      .cls-1 {
        fill: #e4efe1;
      }

      .cls-2 {
        fill: #009245;
      }
    </style>
  </defs>
  <rect class="cls-1" x=".23" y=".23" width="53.55" height="53.55" rx="12.77" ry="12.77"/>
  <g>
    <path class="cls-2" d="M12.45,17.39h7.16c.39,1.81,2,3.18,3.93,3.18s3.54-1.36,3.93-3.18h14.64c.45,0,.81-.37.81-.81s-.37-.81-.81-.81h-14.63c-.36-1.85-1.99-3.25-3.95-3.25s-3.58,1.4-3.95,3.25h-7.14c-.45,0-.81.37-.81.81s.37.81.81.81ZM23.54,14.01c1.33,0,2.41,1.04,2.51,2.34-.02.07-.05.14-.05.22,0,.07.02.13.04.2-.12,1.28-1.19,2.29-2.5,2.29-1.39,0-2.53-1.13-2.53-2.53s1.13-2.53,2.53-2.53Z"/>
    <path class="cls-2" d="M42.01,26.5h-2.36c-.33-1.89-1.98-3.32-3.96-3.32s-3.62,1.44-3.96,3.32H12.45c-.45,0-.81.37-.81.81s.37.81.81.81h19.33c.42,1.77,2.01,3.1,3.91,3.1s3.49-1.33,3.91-3.11c.01,0,.02,0,.03,0h2.37c.45,0,.81-.37.81-.81s-.37-.81-.81-.81ZM35.69,29.74c-1.39,0-2.53-1.13-2.53-2.53s1.13-2.53,2.53-2.53,2.53,1.13,2.53,2.53-1.13,2.53-2.53,2.53Z"/>
    <path class="cls-2" d="M42.01,37.25h-20.22c-.36-1.85-1.99-3.25-3.95-3.25s-3.58,1.4-3.95,3.25h-1.44c-.45,0-.81.37-.81.81s.37.81.81.81h1.46c.39,1.81,2,3.18,3.93,3.18s3.54-1.36,3.93-3.18h20.23c.45,0,.81-.37.81-.81s-.37-.81-.81-.81ZM17.84,40.55c-1.39,0-2.53-1.13-2.53-2.53s1.13-2.53,2.53-2.53,2.53,1.13,2.53,2.53-1.13,2.53-2.53,2.53Z"/>
  </g>
</svg>