<?xml version="1.0" encoding="UTF-8"?>
<svg id="Layer_1" data-name="Layer 1" xmlns="http://www.w3.org/2000/svg" viewBox="0 0 54 54">
  <defs>
    <style>
      .cls-1 {
        fill: #fff;
      }

      .cls-2 {
        fill: #009245;
      }
    </style>
  </defs>
  <rect class="cls-2" x=".23" y=".23" width="53.55" height="53.55" rx="12.77" ry="12.77"/>
  <path class="cls-1" d="M47.76,29.6v-4.16c0-.76-.29-1.43-.84-1.93-.61-.56-1.46-.83-2.35-.76-.51.04-1.16-.01-1.57-.07l-.33-.05-.73-2.01c-.2-.54-.07-1.15.33-1.57l1.42-1.48c.85-.88.8-2.46-.1-3.38l-2.82-2.87c-1.09-1.1-2.72-1.15-3.79-.11l-1.04,1.01c-.45.44-1.12.55-1.69.29l-1.09-.5c-.53-.24-.88-.77-.89-1.36l-.03-1.86c-.02-1.32-1.17-2.49-2.47-2.52-1.29-.03-2.83-.04-4.45.01-.85.03-1.4.44-1.72.79-.53.57-.81,1.36-.77,2.18.03.65,0,1.34-.03,1.7l-.03.36-2.06.77c-.55.21-1.17.07-1.59-.34l-1.24-1.21c-1.05-1.02-2.62-1.05-3.66-.06-.96.92-2.09,2.02-3.18,3.23-.8.9-.76,2.36.09,3.27l1.11,1.19c.42.45.53,1.12.27,1.68l-.5,1.09c-.24.53-.76.87-1.34.88l-2.05.05c-1.19.03-2.3,1.16-2.33,2.37-.04,1.52-.04,2.91,0,4.49.03,1.29,1.21,2.45,2.52,2.48l1.48.03c.61.01,1.15.39,1.38.96l.44,1.1c.22.56.1,1.2-.33,1.63l-1.99,2.03c-.58.59-.58,1.54,0,2.13l3.59,3.65c.51.52,1.18.81,1.89.81h0c.75,0,1.46-.31,2.01-.86l.85-.87c.45-.46,1.14-.58,1.72-.31l1.99.92v.35c.01.28.02.56.02.84,0,.63,0,1.29.06,1.9.13,1.5,1.58,2.28,2.86,2.26l4.24-.08c1.34-.03,2.26-1.48,2.25-2.77v-1.13c-.02-.63.37-1.2.96-1.43l1.12-.44c.55-.22,1.18-.09,1.61.32l1.4,1.35c.97.93,2.56.88,3.55-.11l3.01-3.01c.9-.9.91-2.52.02-3.46l-1.12-1.18c-.43-.45-.54-1.12-.27-1.69l.5-1.08c.24-.52.76-.86,1.34-.88l2.04-.05c1.26-.03,2.36-1.21,2.36-2.53ZM45.06,30.79h-3.3c-.29,0-.51.27-.6.52-.43,1.22-.94,2.34-1.68,3.65-.12.21.01.59.21.78l2.05,1.99c.22.21.35.56.35.94,0,.38-.13.73-.35.95l-2.9,2.87c-.35.35-1.28.42-1.67.02l-2.36-2.38c-.19-.19-.55-.23-.83-.1-1.17.58-2.31,1.01-3.61,1.36-.29.08-.58.36-.58.69l.02,2.93c0,.34-.22.66-.31.78-.24.31-.54.49-.84.49h-4.26s0,.01,0,.01c-.36,0-.66-.25-.81-.4-.15-.15-.4-.46-.4-.83l.02-3.16c0-.54-.21-.66-1.42-1.15-.69-.28-1.56-.62-2.59-1.23-.45-.27-.83-.04-1.06.2l-1.7,1.75c-.18.18-.56.48-.88.56-.5.13-1.15-.25-1.38-.48l-2.66-2.71c-.39-.39-.49-1.34-.06-1.77l2.37-2.35c.24-.24.18-.62.05-.88-.57-1.18-.99-2.29-1.35-3.61-.07-.25-.36-.5-.59-.5h-3s0,.01,0,.01c-.44,0-.82-.34-.92-.44-.17-.17-.38-.45-.38-.8v-4.12c0-.29.13-.59.39-.84.13-.13.48-.43.93-.43h0l3.15.02h0c.46,0,.6-.26,1.08-1.45.23-.59.52-1.29.96-2.1.33-.6.23-1.34-.25-1.82l-1.66-1.66c-.21-.21-.33-.54-.33-.9,0-.36.12-.69.33-.9l2.88-2.88c.4-.4,1.31-.42,1.71-.03l2.52,2.47c.1.1.5.1.78-.03,1.03-.5,1.97-.87,3-1.17.65-.19,1.11-.78,1.11-1.46v-2.3c0-.31.15-.64.42-.91.26-.26.57-.4.87-.4h4.07c.3,0,.61.15.87.41.26.27.42.6.41.91l-.02,3.16c0,.47.25.61,1.43,1.09.69.28,1.55.62,2.54,1.21.25.15.62.25.97-.1l2.08-2.09c.28-.29.74-.32.92-.32.22-.01.57.05.81.28l2.97,2.96c.42.42.33,1.33-.05,1.7l-2.35,2.37c-.21.21-.19.58-.07.83.57,1.15.99,2.25,1.35,3.59.09.32.39.57.68.57h2.96s0,0,0,0c.29,0,.6.14.85.39.25.25.4.56.4.85v4.03c0,.64-.54,1.35-1.27,1.35Z"/>
  <g>
    <path class="cls-1" d="M27.38,26.23s-.08-.05-.12-.06c-.04-.02-.09-.03-.13-.04-.23-.04-.47.03-.62.19-.03.03-.06.07-.09.11-.02.04-.05.08-.06.12-.02.04-.03.08-.04.13,0,.05-.01.09-.01.13,0,.18.07.36.2.49.12.13.3.2.49.2.04,0,.09,0,.13-.01.04,0,.09-.02.13-.04.04-.02.08-.04.12-.06.04-.03.07-.06.11-.09.13-.13.2-.3.2-.49s-.07-.36-.2-.49c-.03-.03-.07-.06-.11-.08Z"/>
    <path class="cls-1" d="M33.29,31.59c.04-.27.06-.54.06-.81v-1.68h2.12c.38,0,.69-.31.69-.69s-.31-.69-.69-.69h-2.12v-2.6c0-.06,0-.12,0-.17.74-.09,2.03-.44,2.88-1.85.2-.33.09-.75-.23-.95-.33-.2-.75-.09-.95.23-.68,1.12-1.79,1.21-2.09,1.21-.53-.94-1.54-1.58-2.69-1.59l-.03-.72c0-.54-.13-1.05-.36-1.5l1.31-1.65c.24-.3.19-.73-.11-.97-.3-.24-.73-.19-.97.11l-1.11,1.4c-.55-.45-1.25-.72-2.01-.72s-1.43.26-1.97.69l-1.09-1.38c-.24-.3-.67-.35-.97-.11-.3.24-.35.67-.11.97l1.28,1.61c-.24.47-.38.99-.38,1.56v.71c-1.14.02-2.14.65-2.67,1.59-.31,0-1.41-.09-2.09-1.21-.2-.33-.62-.43-.95-.23-.33.2-.43.62-.23.95.85,1.4,2.13,1.76,2.88,1.85,0,.06,0,.12,0,.17v2.6h-2.12c-.38,0-.69.31-.69.69s.31.69.69.69h2.12v1.68c0,.28.02.55.06.81-.73.07-2.06.42-2.93,1.85-.2.33-.09.75.23.95.11.07.24.1.36.1.23,0,.46-.12.59-.33.68-1.12,1.78-1.21,2.09-1.21.89,2.36,3.16,4.05,5.82,4.05h.26c2.67,0,4.94-1.69,5.82-4.05.31,0,1.41.09,2.09,1.21.13.21.36.33.59.33.12,0,.25-.03.36-.1.33-.2.43-.62.23-.95-.87-1.44-2.2-1.78-2.93-1.85ZM26.97,19.33c1.03,0,1.87.88,1.87,1.95l.02.61h-3.76v-.61c0-1.08.84-1.95,1.87-1.95ZM31.97,30.78c0,2.48-1.87,4.52-4.28,4.8v-5.93c0-.38-.31-.69-.69-.69s-.69.31-.69.69v5.93c-2.4-.28-4.28-2.33-4.28-4.8v-5.66c0-.96.78-1.74,1.74-1.74h2.54v.73c0,.38.31.69.69.69s.69-.31.69-.69v-.73h2.54c.96,0,1.74.78,1.74,1.74v5.66Z"/>
  </g>
</svg>