<?xml version="1.0" encoding="UTF-8"?>
<svg id="Layer_1" data-name="Layer 1" xmlns="http://www.w3.org/2000/svg" viewBox="0 0 54 54">
  <defs>
    <style>
      .cls-1 {
        fill: #fff;
      }

      .cls-2 {
        fill: #009245;
      }
    </style>
  </defs>
  <rect class="cls-2" x=".23" y=".23" width="53.55" height="53.55" rx="12.77" ry="12.77"/>
  <g>
    <path class="cls-1" d="M27.64,25.72c-.06-.05-.13-.08-.2-.11-.07-.03-.15-.05-.22-.07-.38-.07-.78.05-1.04.32-.05.05-.11.12-.15.18-.04.06-.08.13-.11.2-.03.07-.05.14-.06.22-.02.08-.02.15-.02.22,0,.31.12.6.34.82.21.22.51.34.82.34.07,0,.15,0,.22-.02.07-.02.15-.04.22-.06.07-.03.14-.07.2-.11.06-.05.12-.09.18-.15.22-.22.34-.51.34-.82s-.12-.6-.34-.82c-.05-.05-.12-.1-.18-.14Z"/>
    <path class="cls-1" d="M37.47,34.91l-.26-.03.03-.26c.07-.5.1-.93.1-1.33v-3.06h3.78c.5,0,.9-.41.9-.9s-.41-.9-.9-.9h-3.78v-4.58c0-.06,0-.12,0-.19l-.02-.28.23-.07c1.13-.13,3.24-.69,4.62-2.97.12-.21.16-.45.1-.68s-.2-.43-.41-.56c-.43-.26-.98-.12-1.24.3-1.2,1.98-3.14,2.14-3.7,2.14h-.15l-.07-.13c-.87-1.54-2.51-2.51-4.28-2.53h-.24s-.06-1.44-.06-1.44c0-.85-.2-1.66-.57-2.41l-.07-.14,2.28-2.87c.15-.19.22-.43.19-.67-.03-.24-.15-.45-.34-.6-.19-.15-.42-.21-.67-.19-.24.03-.45.15-.6.34l-2.02,2.54-.2-.16c-1.83-1.47-4.49-1.49-6.33-.04l-.2.15-1.98-2.49c-.15-.19-.37-.31-.61-.34-.24-.03-.48.04-.66.19-.19.15-.31.37-.34.61-.03.24.04.48.19.66l2.23,2.81-.07.14c-.4.77-.6,1.61-.6,2.48v1.43h-.25c-1.75.03-3.38,1-4.24,2.53l-.07.13h-.15c-.57,0-2.51-.16-3.7-2.13-.12-.21-.32-.35-.56-.41-.23-.06-.48-.02-.68.1-.21.12-.35.32-.41.56-.06.23-.02.48.1.68,1.38,2.28,3.49,2.84,4.62,2.97l.23.03-.02.3c0,.11,0,.16,0,.21v4.58h-3.78c-.5,0-.9.41-.9.9s.41.9.9.9h3.78v3.06c0,.4.03.82.1,1.33l.03.26-.26.03c-1.15.12-3.3.66-4.7,2.97-.12.21-.16.45-.1.68.06.23.2.43.41.56.2.12.45.16.68.1.23-.06.44-.2.56-.4,1.19-1.97,3.13-2.13,3.7-2.14h.17s.06.16.06.16c1.48,3.94,5.29,6.59,9.48,6.59h.43c4.19,0,8-2.65,9.48-6.59l.06-.16h.17c.56,0,2.5.16,3.7,2.14.25.42.82.56,1.24.3.21-.12.35-.32.41-.56.06-.23.02-.48-.1-.68-1.4-2.32-3.55-2.86-4.7-2.97ZM26.96,13.95c1.86,0,3.37,1.58,3.37,3.52l.05,1.25h-6.79v-1.26c0-1.94,1.51-3.51,3.37-3.51ZM28.18,41.57l-.28.03v-10.18c0-.5-.41-.9-.9-.9s-.9.41-.9.9v10.18l-.28-.03c-4.19-.49-7.36-4.04-7.36-8.27v-9.44c0-1.74,1.42-3.16,3.16-3.16h4.48v1.46c0,.5.41.9.9.9s.9-.41.9-.9v-1.46h4.48c1.74,0,3.16,1.42,3.16,3.16v9.44c0,4.22-3.16,7.78-7.36,8.27Z"/>
  </g>
</svg>